<svg width="275" height="275" viewBox="0 0 275 275" fill="none" xmlns="http://www.w3.org/2000/svg">
<path d="M86.6661 205.765H48.7466V91.2829H86.6661V205.765ZM67.6859 75.6665C55.5605 75.6665 45.7255 66.2507 45.7255 54.8828C45.7255 49.4225 48.0392 44.1857 52.1575 40.3246C56.2759 36.4636 61.8617 34.2944 67.6859 34.2944C73.5102 34.2944 79.096 36.4636 83.2144 40.3246C87.3327 44.1857 89.6464 49.4225 89.6464 54.8828C89.6464 66.2507 79.8073 75.6665 67.6859 75.6665ZM228.587 205.765H190.749V150.036C190.749 136.754 190.463 119.722 171.034 119.722C151.319 119.722 148.298 134.151 148.298 149.079V205.765H110.419V91.2829H146.787V106.899H147.318C152.38 97.9046 164.746 88.4122 183.196 88.4122C221.573 88.4122 228.627 112.105 228.627 142.878V205.765H228.587Z" fill="white"/>
</svg>
