<svg width="275" height="275" viewBox="0 0 275 275" fill="none" xmlns="http://www.w3.org/2000/svg">
<path d="M251.49 65.5731C242.988 69.3026 233.929 71.7747 224.484 72.975C234.2 67.1735 241.616 58.057 245.103 47.0686C236.044 52.4699 226.041 56.2851 215.381 58.4142C206.779 49.2549 194.519 43.582 181.144 43.582C155.195 43.582 134.304 64.6443 134.304 90.465C134.304 94.1801 134.619 97.7525 135.39 101.153C96.4237 99.2528 61.9438 80.5768 38.781 52.127C34.7371 59.143 32.3651 67.1735 32.3651 75.8185C32.3651 92.0511 40.7243 106.44 53.1845 114.771C45.6541 114.628 38.2666 112.442 32.0079 108.998C32.0079 109.141 32.0079 109.327 32.0079 109.512C32.0079 132.289 48.2547 151.208 69.56 155.567C65.7447 156.61 61.5866 157.11 57.2712 157.11C54.2705 157.11 51.2412 156.938 48.3976 156.31C54.4705 174.871 71.7033 188.518 92.1941 188.961C76.2473 201.435 55.9995 208.951 34.0798 208.951C30.236 208.951 26.5494 208.78 22.8628 208.308C43.625 221.697 68.2311 229.342 94.7661 229.342C181.016 229.342 228.17 157.896 228.17 95.9663C228.17 93.8944 228.099 91.8939 227.999 89.9077C237.301 83.3061 245.117 75.0612 251.49 65.5731Z" fill="white"/>
</svg>
