<svg width="275" height="275" viewBox="0 0 275 275" fill="none" xmlns="http://www.w3.org/2000/svg">
<path d="M114.314 171.47L173.643 137.176L114.314 102.882V171.47ZM246.46 81.9628C247.947 87.3356 248.975 94.5373 249.661 103.682C250.461 112.828 250.804 120.715 250.804 127.574L251.49 137.176C251.49 162.211 249.661 180.616 246.46 192.39C243.603 202.678 236.972 209.308 226.684 212.166C221.311 213.652 211.48 214.681 196.391 215.367C181.53 216.167 167.927 216.51 155.352 216.51L137.177 217.196C89.2791 217.196 59.4432 215.367 47.6689 212.166C37.3806 209.308 30.7504 202.678 27.8926 192.39C26.4065 187.017 25.3777 179.815 24.6918 170.67C23.8916 161.525 23.5487 153.638 23.5487 146.779L22.8628 137.176C22.8628 112.142 24.6918 93.7371 27.8926 81.9628C30.7504 71.6746 37.3806 65.0444 47.6689 62.1865C53.0416 60.7005 62.8726 59.6716 77.962 58.9858C92.8228 58.1856 106.426 57.8426 119.001 57.8426L137.177 57.1567C185.074 57.1567 214.91 58.9858 226.684 62.1865C236.972 65.0444 243.603 71.6746 246.46 81.9628Z" fill="white"/>
</svg>
